# xmcd
#
# Track frame offsets:
#	150
#	19022
#	36092
#	52289
#	68316
#	91837
#	109762
#	123334
#	140181
#	159348
#	184914
#	210689
#	227538
#	250101
#	265526
#	280551
#	298310
#	316956
#	339798
#
# Disc length: 4682 seconds
#
# Revision: 0
# Processed by: cddbd v1.5.2PL0 Copyright (c) Steve Scherf et al.
# Submitted via: EZCDAudioConverter 9.0.5.1
#
DISCID=09124813
DTITLE=Cat Cat - Hittikimara Kortti Ja Cd 2019
DYEAR=2019
DGENRE=Suomi Iskelmä
TTITLE0=Aurinkotanssija
TTITLE1=Piirtelet Mun Sydämeen
TTITLE2=Kaksi Lensi Yli Käenpesän
TTITLE3=Kyyneleet
TTITLE4=Yksin Sateeseen
TTITLE5=Sielun Sirpaleet
TTITLE6=Bye Bye Baby
TTITLE7=Elä
TTITLE8=Tee Päivistäni Yöt
TTITLE9=Kuiskaus
TTITLE10=Enkeli
TTITLE11=Kalajoen Hiekat
TTITLE12=Unten Erämaa
TTITLE13=Jos Katsot Taaksesi
TTITLE14=Kukat Kauniit Aamuin
TTITLE15=Pieni Ihminen
TTITLE16=Lainaa Vain
TTITLE17=Jäätyneet Perhoset (Bonusraita)
TTITLE18=Bae Bae Beibi (Feat. Krista Siegfrids)  (Bonusraita)
EXTD=
EXTT0=
EXTT1=
EXTT2=
EXTT3=
EXTT4=
EXTT5=
EXTT6=
EXTT7=
EXTT8=
EXTT9=
EXTT10=
EXTT11=
EXTT12=
EXTT13=
EXTT14=
EXTT15=
EXTT16=
EXTT17=
EXTT18=
PLAYORDER=
